<svg width="128" height="128" viewBox="0 0 128 128" fill="none" xmlns="http://www.w3.org/2000/svg">
<path d="M66.4921 127.98C64.8386 127.98 63.1837 127.98 61.5301 127.98C60.5576 127.897 59.585 127.811 58.6125 127.733C52.857 127.275 47.2688 126.044 41.8584 124.036C31.7723 120.293 23.1449 114.395 16.0404 106.317C6.54376 95.5224 1.28238 82.916 0.185659 68.5881C-0.281003 62.5006 0.128143 56.4536 1.45754 50.4889C5.09541 34.1688 13.7855 21.1677 27.3984 11.5129C37.3879 4.42796 48.5865 0.715582 60.8112 0.0894445C68.917 -0.326237 76.8411 0.698588 84.5116 3.33908C99.6879 8.56517 111.319 18.1873 119.448 32.0002C123.997 39.7282 126.686 48.1059 127.624 57.0326C127.762 58.3477 127.875 59.6653 128 60.9816C128 62.9411 128 64.8992 128 66.8587C127.962 67.1123 127.902 67.3645 127.889 67.6195C127.617 72.8351 126.741 77.9474 125.145 82.9186C119.757 99.7015 109.271 112.28 93.7664 120.632C86.5887 124.499 78.8946 126.789 70.7731 127.603C69.3483 127.747 67.9196 127.855 66.4921 127.98ZM64.0517 8.12073C33.2454 8.1155 8.2091 33.1479 8.18819 63.9737C8.16727 94.7094 33.1905 119.777 63.9222 119.808C94.7807 119.84 119.871 94.7943 119.858 63.9724C119.845 33.1871 94.8043 8.12596 64.0517 8.12073Z" fill="white"/>
<path d="M35.3788 39.1282C36.2454 39.2314 37.1042 39.3112 37.9565 39.4367C46.695 40.7308 55.0544 39.2654 63.1811 36.0236C63.4817 35.9034 63.9105 35.8877 64.2072 36.0053C68.7523 37.8145 73.4267 39.119 78.2986 39.6484C81.8606 40.0353 85.4214 39.9765 88.9743 39.4968C89.9834 39.3608 90.9965 39.2484 92.0409 39.1216C92.0409 40.6314 92.0618 42.0837 92.037 43.536C91.9468 48.7163 91.7063 53.8875 91.0435 59.0299C90.0815 66.4821 88.505 73.7683 85.0331 80.516C82.2266 85.9708 78.3796 90.4793 73.0123 93.5877C70.2071 95.2125 67.2046 96.3315 64.0687 97.1106C63.7915 97.1798 63.4621 97.138 63.1772 97.0687C53.3211 94.6661 46.3264 88.7655 41.9369 79.6794C39.631 74.9082 38.2036 69.8625 37.2376 64.6717C35.9082 57.5254 35.4389 50.3058 35.3788 43.051C35.3696 41.7726 35.3788 40.4942 35.3788 39.1282ZM63.7419 66.971C64.0007 66.988 64.2595 67.0194 64.5183 67.0194C70.2856 67.022 76.0528 67.0076 81.8201 67.0403C82.4855 67.0442 82.6854 66.8141 82.824 66.2142C83.9639 61.2822 84.5508 56.277 84.888 51.2365C84.9691 50.0274 85.0096 48.8156 85.0724 47.5189C77.6881 47.8379 70.6529 46.4614 63.7209 43.9137C63.7209 44.2562 63.7209 44.4889 63.7209 44.7216C63.7209 51.9267 63.7209 59.1306 63.7223 66.3357C63.7223 66.5527 63.7432 66.7684 63.7549 66.9867C63.4726 66.9985 63.1915 67.0207 62.9092 67.0207C57.1419 67.0233 51.3747 67.022 45.6074 67.022C45.359 67.022 45.1107 67.022 44.78 67.022C45.1198 68.1984 45.3695 69.2795 45.7447 70.3161C46.3943 72.1121 47.0296 73.9226 47.8309 75.6533C50.2936 80.9722 53.9746 85.1708 59.3654 87.6871C60.7484 88.3329 62.202 88.827 63.7223 89.4296C63.7223 88.993 63.7223 88.7551 63.7223 88.5172C63.7223 84.7081 63.7196 80.899 63.7236 77.0899C63.7262 73.7173 63.7353 70.3435 63.7419 66.971Z" fill="white"/>
</svg>
