<svg width="128" height="128" viewBox="0 0 128 128" fill="none" xmlns="http://www.w3.org/2000/svg">
<path d="M66.4921 127.98C64.8386 127.98 63.1837 127.98 61.5301 127.98C60.5576 127.897 59.585 127.811 58.6125 127.733C52.857 127.275 47.2688 126.044 41.8584 124.036C31.7723 120.293 23.1449 114.395 16.0404 106.317C6.54376 95.5224 1.28238 82.916 0.185659 68.5881C-0.281003 62.5006 0.128143 56.4536 1.45754 50.4889C5.09541 34.1688 13.7855 21.1677 27.3984 11.5129C37.3879 4.42796 48.5865 0.715582 60.8112 0.0894445C68.917 -0.326237 76.8411 0.698588 84.5116 3.33908C99.6879 8.56517 111.319 18.1873 119.448 32.0002C123.997 39.7282 126.686 48.1059 127.624 57.0326C127.762 58.3477 127.875 59.6653 128 60.9816C128 62.9411 128 64.8992 128 66.8587C127.962 67.1123 127.902 67.3645 127.889 67.6195C127.617 72.8351 126.741 77.9474 125.145 82.9186C119.757 99.7015 109.271 112.28 93.7664 120.632C86.5887 124.499 78.8946 126.789 70.7731 127.603C69.3483 127.747 67.9196 127.855 66.4921 127.98ZM64.0517 8.12073C33.2454 8.1155 8.2091 33.1479 8.18819 63.9737C8.16727 94.7094 33.1905 119.777 63.9222 119.808C94.7807 119.84 119.871 94.7943 119.858 63.9724C119.845 33.1871 94.8043 8.12596 64.0517 8.12073Z" fill="white"/>
<path d="M68.4446 97C68.5648 97 68.6851 97 68.8054 97C68.9096 96.9654 69.0118 96.9235 69.1182 96.8982C70.9557 96.4573 72.7932 96.019 74.6307 95.5787C75.312 95.4154 75.4865 95.1854 75.5103 94.485C75.5789 92.4378 75.6522 90.3906 75.7255 88.3434C75.7415 87.8958 75.9407 87.5557 76.3335 87.3335C76.7671 87.088 77.2069 86.8518 77.6311 86.5913C78.0972 86.305 78.536 86.3153 79.0124 86.584C80.7864 87.5841 82.5702 88.5667 84.351 89.5554C84.8604 89.8381 85.1851 89.7911 85.5939 89.374C86.9731 87.9671 88.3512 86.5598 89.7298 85.1529C90.1474 84.7265 90.1851 84.405 89.8764 83.8841C88.8467 82.1454 87.8232 80.4026 86.7821 78.6712C86.4982 78.1993 86.4853 77.7605 86.7619 77.2896C87.0056 76.8746 87.2389 76.4524 87.452 76.0208C87.7034 75.5112 88.0993 75.2874 88.6614 75.2548C90.7204 75.1344 92.7783 74.9938 94.8362 74.8558C95.3544 74.8212 95.6094 74.586 95.7188 74.0806C96.1281 72.1894 96.5385 70.2983 96.9488 68.4077C97.0877 67.7689 96.9597 67.4991 96.3717 67.205C94.5673 66.3 92.7638 65.3924 90.9568 64.4926C90.5211 64.2755 90.2992 63.936 90.2718 63.4543C90.2372 62.8444 90.2104 62.2335 90.1552 61.6252C90.1046 61.0639 90.3074 60.6581 90.7647 60.3258C92.4335 59.1123 94.0883 57.8791 95.7477 56.6526C96.1348 56.3663 96.2608 56.0138 96.109 55.5957C95.4365 53.7454 94.7603 51.8961 94.0811 50.0484C93.9391 49.6623 93.5923 49.4649 93.1855 49.5088C91.1353 49.73 89.0847 49.9455 87.035 50.1719C86.5498 50.2256 86.1849 50.0603 85.9025 49.6669C85.4504 49.0385 84.9957 48.412 84.5285 47.7949C84.2137 47.3789 84.1641 46.9556 84.3536 46.4656C85.0979 44.5414 85.8246 42.61 86.556 40.6806C86.7527 40.1617 86.6613 39.8386 86.2262 39.5079C84.7892 38.4147 83.3512 37.3226 81.9132 36.2306C81.4006 35.8414 81.1064 35.8471 80.6027 36.2533C79.0433 37.5113 77.4815 38.7667 75.9252 40.0288C75.5479 40.3348 75.1505 40.3989 74.6989 40.2242C73.8095 39.88 72.916 39.5477 72.0257 39.2071C71.6169 39.051 71.3681 38.7559 71.2788 38.3248C71.1425 37.6679 71.0032 37.012 70.8654 36.3556C70.5706 34.9498 70.2769 33.544 69.9801 32.1392C69.8945 31.733 69.6266 31.4606 69.2405 31.4151C67.4396 31.2017 65.6382 30.9949 63.8209 31.0001C63.2087 31.0016 62.963 31.1846 62.7663 31.7764C62.1315 33.6851 61.494 35.5933 60.8633 37.5035C60.7115 37.963 60.4142 38.2349 59.9409 38.3372C58.9504 38.5512 57.9604 38.7693 56.974 39.0008C56.4734 39.1182 56.0728 38.9915 55.7141 38.6241C54.2895 37.166 52.8551 35.7168 51.4238 34.2655C51.047 33.8836 50.7053 33.835 50.2439 34.095C48.7243 34.9514 47.2047 35.8088 45.6852 36.6657C45.1938 36.9428 45.0653 37.2518 45.2062 37.8038C45.7161 39.8035 46.224 41.8037 46.7355 43.8028C46.8403 44.2132 46.75 44.574 46.463 44.8758C45.711 45.6681 44.9527 46.4548 44.193 47.2398C43.9008 47.5417 43.5416 47.645 43.1323 47.553C41.1296 47.1029 39.1274 46.6517 37.1252 46.2C36.575 46.0759 36.2627 46.2196 36.0062 46.7183C35.2072 48.2699 34.4077 49.8215 33.6087 51.373C33.3372 51.8997 33.3893 52.2067 33.8229 52.6114C35.3197 54.0079 36.813 55.408 38.3165 56.7973C38.6964 57.1483 38.8172 57.5529 38.7196 58.0527C38.5457 58.9474 38.3728 59.8431 38.2283 60.7429C38.1379 61.3052 37.8484 61.6407 37.3121 61.8345C35.2036 62.5932 33.1033 63.3762 31 64.1515C31 64.427 31 64.7024 31 64.9779C31.0145 65.0616 31.033 65.1449 31.0423 65.2291C31.2338 66.9383 31.4202 68.648 31.6173 70.3562C31.6741 70.8493 31.9146 71.0963 32.3941 71.1842C34.4469 71.5599 36.4996 71.9362 38.5545 72.3C39.051 72.3879 39.3757 72.6479 39.5636 73.111C39.8676 73.8594 40.1742 74.6072 40.4983 75.3474C40.7105 75.8327 40.6454 76.2503 40.3239 76.6689C39.099 78.266 37.8876 79.8728 36.6726 81.4771C36.3453 81.9087 36.3489 82.2493 36.6839 82.6653C37.8592 84.1259 39.0355 85.586 40.2124 87.0456C40.5804 87.502 40.8932 87.5805 41.4326 87.3572C43.3609 86.5587 45.2893 85.7612 47.2166 84.9601C47.6404 84.7839 48.0357 84.8211 48.4125 85.0831C48.97 85.4708 49.5233 85.8646 50.0885 86.2414C50.5195 86.5293 50.6898 86.9159 50.648 87.4291C50.4844 89.436 50.3321 91.4434 50.1737 93.4503C50.1257 94.0561 50.2945 94.3186 50.8694 94.5129C52.676 95.1223 54.4825 95.7311 56.2891 96.3405C56.8914 96.5436 57.1857 96.4475 57.5449 95.9296C58.7166 94.2411 59.8924 92.5551 61.0568 90.862C61.3485 90.4382 61.7237 90.248 62.2362 90.2805C62.8536 90.3198 63.4719 90.3482 64.0903 90.3534C64.3716 90.3555 64.5682 90.4671 64.7231 90.679C64.8041 90.7896 64.8728 90.91 64.9378 91.031C65.8783 92.78 66.8223 94.5274 67.7519 96.2821C67.9181 96.5963 68.1111 96.8594 68.4446 97ZM44.7318 64.0517C44.6998 53.412 53.3635 44.7306 64.0351 44.7094C74.6865 44.6882 83.3264 53.3215 83.3615 64.0207C83.3966 74.6729 74.7778 83.3248 64.0789 83.3765C53.4482 83.4277 44.7643 74.7545 44.7318 64.0517Z" fill="white"/>
</svg>
