<svg width="128" height="128" viewBox="0 0 128 128" fill="none" xmlns="http://www.w3.org/2000/svg">
<path d="M66.4921 127.98C64.8386 127.98 63.1837 127.98 61.5301 127.98C60.5576 127.897 59.585 127.811 58.6125 127.733C52.857 127.275 47.2688 126.044 41.8584 124.036C31.7723 120.293 23.1449 114.395 16.0404 106.317C6.54376 95.5224 1.28238 82.916 0.185659 68.5881C-0.281003 62.5006 0.128143 56.4536 1.45754 50.4889C5.09541 34.1688 13.7855 21.1677 27.3984 11.5129C37.3879 4.42796 48.5865 0.715582 60.8112 0.0894445C68.917 -0.326237 76.8411 0.698588 84.5116 3.33908C99.6879 8.56517 111.319 18.1873 119.448 32.0002C123.997 39.7282 126.686 48.1059 127.624 57.0326C127.762 58.3477 127.875 59.6653 128 60.9816C128 62.9411 128 64.8992 128 66.8587C127.962 67.1123 127.902 67.3645 127.889 67.6195C127.617 72.8351 126.741 77.9474 125.145 82.9186C119.757 99.7015 109.271 112.28 93.7664 120.632C86.5887 124.499 78.8946 126.789 70.7731 127.603C69.3483 127.747 67.9196 127.855 66.4921 127.98ZM64.0517 8.12073C33.2454 8.1155 8.2091 33.1479 8.18819 63.9737C8.16727 94.7094 33.1905 119.777 63.9222 119.808C94.7807 119.84 119.871 94.7943 119.858 63.9724C119.845 33.1871 94.8043 8.12596 64.0517 8.12073Z" fill="white"/>
<rect x="35" y="45" width="60" height="35" rx="7" fill="white"/>
<path d="M84.7376 86.2861L70.5 75.5L83.5 74L86.3116 85.2464C86.5405 86.1622 85.49 86.8561 84.7376 86.2861Z" fill="white" stroke="white"/>
</svg>
